<?xml version="1.0" encoding="UTF-8" standalone="no"?><!DOCTYPE svg PUBLIC "-//W3C//DTD SVG 1.1//EN" "http://www.w3.org/Graphics/SVG/1.1/DTD/svg11.dtd"><svg width="100%" height="100%" viewBox="0 0 1749 2481" version="1.1" xmlns="http://www.w3.org/2000/svg" xmlns:xlink="http://www.w3.org/1999/xlink" xml:space="preserve" xmlns:serif="http://www.serif.com/" style="fill-rule:evenodd;clip-rule:evenodd;stroke-linejoin:round;stroke-miterlimit:2;"><path d="M0,88.779l-0,-88.779l73.808,0c0,27.872 22.628,50.5 50.5,50.5c27.872,0 50.5,-22.628 50.5,-50.5l48.942,0c0,27.872 22.628,50.5 50.5,50.5c27.872,0 50.5,-22.628 50.5,-50.5l48.942,0c0,27.872 22.628,50.5 50.5,50.5c27.872,0 50.5,-22.628 50.5,-50.5l48.942,0c0,27.872 22.628,50.5 50.5,50.5c27.872,0 50.5,-22.628 50.5,-50.5l48.942,0c0,27.872 22.628,50.5 50.5,50.5c27.872,0 50.5,-22.628 50.5,-50.5l48.942,0c0,27.872 22.628,50.5 50.5,50.5c27.872,0 50.5,-22.628 50.5,-50.5l48.942,0c0,27.872 22.628,50.5 50.5,50.5c27.872,0 50.5,-22.628 50.5,-50.5l48.942,0c0,27.872 22.628,50.5 50.5,50.5c27.872,0 50.5,-22.628 50.5,-50.5l48.942,0c0,27.872 22.628,50.5 50.5,50.5c27.872,0 50.5,-22.628 50.5,-50.5l48.942,0c0,27.872 22.628,50.5 50.5,50.5c27.872,0 50.5,-22.628 50.5,-50.5l48.942,0c0,27.872 22.628,50.5 50.5,50.5c27.872,0 50.5,-22.628 50.5,-50.5l73.808,0l0,88.779c-27.872,0 -50.5,22.628 -50.5,50.5c0,27.872 22.628,50.5 50.5,50.5l0,56.268c-27.872,0 -50.5,22.628 -50.5,50.5c0,27.872 22.628,50.5 50.5,50.5l0,56.268c-27.872,0 -50.5,22.628 -50.5,50.5c0,27.872 22.628,50.5 50.5,50.5l0,56.268c-27.872,0 -50.5,22.628 -50.5,50.5c0,27.872 22.628,50.5 50.5,50.5l0,56.268c-27.872,0 -50.5,22.628 -50.5,50.5c0,27.872 22.628,50.5 50.5,50.5l0,56.268c-27.872,0 -50.5,22.628 -50.5,50.5c0,27.872 22.628,50.5 50.5,50.5l0,56.268c-27.872,0 -50.5,22.628 -50.5,50.5c0,27.872 22.628,50.5 50.5,50.5l0,56.268c-27.872,0 -50.5,22.628 -50.5,50.5c0,27.872 22.628,50.5 50.5,50.5l0,56.268c-27.872,0 -50.5,22.628 -50.5,50.5c0,27.872 22.628,50.5 50.5,50.5l0,56.268c-27.872,0 -50.5,22.628 -50.5,50.5c0,27.872 22.628,50.5 50.5,50.5l0,56.268c-27.872,0 -50.5,22.628 -50.5,50.5c0,27.872 22.628,50.5 50.5,50.5l0,56.268c-27.872,0 -50.5,22.628 -50.5,50.5c0,27.872 22.628,50.5 50.5,50.5l0,56.268c-27.872,0 -50.5,22.628 -50.5,50.5c0,27.872 22.628,50.5 50.5,50.5l0,56.268c-27.872,0 -50.5,22.628 -50.5,50.5c0,27.872 22.628,50.5 50.5,50.5l0,56.268c-27.872,0 -50.5,22.628 -50.5,50.5c0,27.872 22.628,50.5 50.5,50.5l-0,88.779l-73.808,0c0,-27.872 -22.628,-50.5 -50.5,-50.5c-27.872,0 -50.5,22.628 -50.5,50.5l-48.942,0c0,-27.872 -22.628,-50.5 -50.5,-50.5c-27.872,0 -50.5,22.628 -50.5,50.5l-48.942,0c0,-27.872 -22.628,-50.5 -50.5,-50.5c-27.872,0 -50.5,22.628 -50.5,50.5l-48.942,0c0,-27.872 -22.628,-50.5 -50.5,-50.5c-27.872,0 -50.5,22.628 -50.5,50.5l-48.942,0c0,-27.872 -22.628,-50.5 -50.5,-50.5c-27.872,0 -50.5,22.628 -50.5,50.5l-48.942,0c0,-27.872 -22.628,-50.5 -50.5,-50.5c-27.872,0 -50.5,22.628 -50.5,50.5l-48.942,0c0,-27.872 -22.628,-50.5 -50.5,-50.5c-27.872,0 -50.5,22.628 -50.5,50.5l-48.942,0c0,-27.872 -22.628,-50.5 -50.5,-50.5c-27.872,0 -50.5,22.628 -50.5,50.5l-48.942,0c0,-27.872 -22.628,-50.5 -50.5,-50.5c-27.872,0 -50.5,22.628 -50.5,50.5l-48.942,0c0,-27.872 -22.628,-50.5 -50.5,-50.5c-27.872,0 -50.5,22.628 -50.5,50.5l-48.942,0c0,-27.872 -22.628,-50.5 -50.5,-50.5c-27.872,0 -50.5,22.628 -50.5,50.5l-73.808,0l-0,-88.779c27.872,0 50.5,-22.628 50.5,-50.5c0,-27.872 -22.628,-50.5 -50.5,-50.5l0,-56.268c27.872,0 50.5,-22.628 50.5,-50.5c0,-27.872 -22.628,-50.5 -50.5,-50.5l0,-56.268c27.872,0 50.5,-22.628 50.5,-50.5c0,-27.872 -22.628,-50.5 -50.5,-50.5l0,-56.268c27.872,0 50.5,-22.628 50.5,-50.5c0,-27.872 -22.628,-50.5 -50.5,-50.5l0,-56.268c27.872,0 50.5,-22.628 50.5,-50.5c0,-27.872 -22.628,-50.5 -50.5,-50.5l0,-56.268c27.872,0 50.5,-22.628 50.5,-50.5c0,-27.872 -22.628,-50.5 -50.5,-50.5l0,-56.268c27.872,0 50.5,-22.628 50.5,-50.5c0,-27.872 -22.628,-50.5 -50.5,-50.5l0,-56.268c27.872,0 50.5,-22.628 50.5,-50.5c0,-27.872 -22.628,-50.5 -50.5,-50.5l0,-56.268c27.872,0 50.5,-22.628 50.5,-50.5c0,-27.872 -22.628,-50.5 -50.5,-50.5l0,-56.268c27.872,0 50.5,-22.628 50.5,-50.5c0,-27.872 -22.628,-50.5 -50.5,-50.5l0,-56.268c27.872,0 50.5,-22.628 50.5,-50.5c0,-27.872 -22.628,-50.5 -50.5,-50.5l-0,-56.268c27.872,0 50.5,-22.628 50.5,-50.5c0,-27.872 -22.628,-50.5 -50.5,-50.5l0,-56.268c27.872,0 50.5,-22.628 50.5,-50.5c0,-27.872 -22.628,-50.5 -50.5,-50.5l0,-56.268c27.872,0 50.5,-22.628 50.5,-50.5c0,-27.872 -22.628,-50.5 -50.5,-50.5l0,-56.268c27.872,0 50.5,-22.628 50.5,-50.5c0,-27.872 -22.628,-50.5 -50.5,-50.5Zm1585.016,67.221l-1422,0l0,1444l1422,0l0,-1444Z" style="fill:#fff;"/></svg>